<mxfile host="app.diagrams.net" modified="2020-08-10T12:29:12.249Z" agent="5.0 (Windows NT 10.0; Win64; x64) AppleWebKit/537.36 (KHTML, like Gecko) Chrome/84.0.4147.105 Safari/537.36" etag="WMQV3fyeQmHIfbyvW5aT" version="13.6.2" type="github">
  <diagram name="Page-1" id="9f46799a-70d6-7492-0946-bef42562c5a5">
    <mxGraphModel dx="1550" dy="1686" grid="1" gridSize="10" guides="1" tooltips="1" connect="1" arrows="1" fold="1" page="1" pageScale="1" pageWidth="1100" pageHeight="850" background="#ffffff" math="0" shadow="0">
      <root>
        <mxCell id="0" />
        <mxCell id="1" parent="0" />
        <mxCell id="NX6FwnfT7xxjcJyB9VKW-6" value="" style="line;strokeWidth=1;fillColor=none;align=left;verticalAlign=middle;spacingTop=-5;spacingLeft=3;spacingRight=3;rotatable=0;labelPosition=right;points=[];portConstraint=eastwest;" vertex="1" parent="1">
          <mxGeometry x="100" y="-420" width="110" height="28" as="geometry" />
        </mxCell>
        <mxCell id="NX6FwnfT7xxjcJyB9VKW-7" value="空栈" style="text;strokeColor=none;fillColor=none;align=center;verticalAlign=top;spacingLeft=4;spacingRight=4;overflow=hidden;rotatable=0;points=[[0,0.5],[1,0.5]];portConstraint=eastwest;" vertex="1" parent="1">
          <mxGeometry x="105" y="-380" width="100" height="26" as="geometry" />
        </mxCell>
        <mxCell id="NX6FwnfT7xxjcJyB9VKW-8" value="Object" style="html=1;" vertex="1" parent="1">
          <mxGeometry x="290" y="-450" width="110" height="50" as="geometry" />
        </mxCell>
      </root>
    </mxGraphModel>
  </diagram>
</mxfile>
